<?xml version="1.0" encoding="utf-8"?>
<!-- Generator: Adobe Illustrator 22.0.0, SVG Export Plug-In . SVG Version: 6.00 Build 0)  -->
<svg version="1.1" id="Layer_1" xmlns="http://www.w3.org/2000/svg" xmlns:xlink="http://www.w3.org/1999/xlink" x="0px" y="0px"
	 viewBox="0 0 705 177" style="enable-background:new 0 0 705 177;" xml:space="preserve">
<style type="text/css">
	.st0{fill:#051935;}
	.st1{fill:#2383B4;}
	.st2{fill:#52A1BD;}
	.st3{fill:#1A6186;}
</style>
<g>
	<path class="st0" d="M103.3,102.5c0.9,0,1.7,0.3,2.3,1l6.4,6.9c-3.5,4.4-7.9,7.7-13,10c-5.2,2.3-11.3,3.5-18.6,3.5
		c-6.5,0-12.3-1.1-17.4-3.3c-5.2-2.2-9.6-5.3-13.2-9.2c-3.6-3.9-6.4-8.6-8.4-14.1C39.5,92,38.5,86,38.5,79.6c0-6.5,1-12.5,3.1-18
		c2.1-5.4,5-10.1,8.8-14c3.8-3.9,8.3-7,13.6-9.2c5.3-2.2,11.1-3.3,17.4-3.3c6.3,0,12,1,16.9,3.1c4.9,2.1,9.1,4.8,12.5,8.2l-5.4,7.5
		c-0.3,0.5-0.7,0.9-1.2,1.3c-0.5,0.4-1.2,0.5-2.1,0.5c-0.6,0-1.2-0.2-1.9-0.5c-0.6-0.3-1.3-0.8-2.1-1.3c-0.8-0.5-1.6-1.1-2.6-1.7
		c-1-0.6-2.2-1.2-3.5-1.7c-1.3-0.5-2.9-0.9-4.6-1.3c-1.7-0.3-3.8-0.5-6-0.5c-3.9,0-7.4,0.7-10.7,2.1c-3.2,1.4-6,3.4-8.3,6
		c-2.3,2.6-4.1,5.8-5.4,9.6c-1.3,3.8-1.9,8.1-1.9,13c0,4.9,0.7,9.2,2.1,13.1c1.4,3.8,3.3,7,5.6,9.6s5.2,4.6,8.4,6
		c3.2,1.4,6.7,2.1,10.3,2.1c2.2,0,4.2-0.1,6-0.4c1.8-0.2,3.4-0.6,4.9-1.1s2.9-1.2,4.3-2c1.3-0.8,2.7-1.8,4-3
		c0.4-0.4,0.8-0.7,1.3-0.9C102.4,102.7,102.8,102.5,103.3,102.5z"/>
	<path class="st0" d="M134.7,72c1.9-3.7,4.2-6.6,6.9-8.7c2.6-2.1,5.8-3.2,9.4-3.2c2.8,0,5.1,0.6,6.9,1.9l-1,11.1
		c-0.2,0.7-0.5,1.2-0.9,1.5c-0.4,0.3-0.9,0.5-1.5,0.5c-0.6,0-1.5-0.1-2.7-0.3c-1.2-0.2-2.3-0.3-3.5-0.3c-1.6,0-3.1,0.2-4.4,0.7
		c-1.3,0.5-2.4,1.2-3.5,2.1s-1.9,2-2.7,3.3c-0.8,1.3-1.5,2.7-2.2,4.4v38h-14.9V61.3h8.7c1.5,0,2.6,0.3,3.2,0.8
		c0.6,0.5,1,1.5,1.2,2.9L134.7,72z"/>
	<path class="st0" d="M221.6,61.3L188,140c-0.4,1-1,1.8-1.7,2.4c-0.7,0.5-1.8,0.8-3.2,0.8H172l11.5-24.8l-25-57.1h13.1
		c1.2,0,2.1,0.3,2.7,0.8c0.7,0.6,1.2,1.2,1.5,1.9l13.1,32c0.4,1.1,0.8,2.2,1.1,3.2s0.6,2.2,0.9,3.3c0.4-1.1,0.7-2.2,1.1-3.3
		c0.4-1.1,0.8-2.2,1.2-3.3l12.4-31.9c0.3-0.8,0.9-1.5,1.6-2c0.7-0.5,1.6-0.8,2.5-0.8H221.6z"/>
	<path class="st0" d="M243.1,69.8c2.5-2.8,5.4-5.2,8.6-6.9c3.2-1.8,7-2.6,11.3-2.6c3.4,0,6.4,0.7,9.2,2.1c2.8,1.4,5.2,3.4,7.2,6.1
		c2,2.7,3.6,6,4.7,9.9c1.1,3.9,1.7,8.4,1.7,13.4c0,4.6-0.6,8.9-1.9,12.8c-1.2,3.9-3,7.3-5.3,10.2c-2.3,2.9-5.1,5.1-8.4,6.8
		c-3.3,1.6-6.9,2.4-11,2.4c-3.4,0-6.4-0.5-8.8-1.6c-2.4-1.1-4.6-2.5-6.6-4.4v25.3H229V61.3h9.1c1.9,0,3.2,0.9,3.8,2.7L243.1,69.8z
		 M243.8,107.1c1.7,2,3.5,3.5,5.5,4.3c2,0.8,4.1,1.3,6.5,1.3c2.2,0,4.3-0.4,6.1-1.3c1.8-0.8,3.3-2.1,4.6-3.8
		c1.3-1.7,2.2-3.9,2.9-6.5c0.7-2.6,1-5.7,1-9.3c0-3.6-0.3-6.7-0.9-9.2c-0.6-2.5-1.4-4.5-2.5-6.1c-1.1-1.6-2.4-2.7-3.9-3.4
		c-1.5-0.7-3.3-1.1-5.3-1.1c-3.1,0-5.7,0.7-7.9,2c-2.2,1.3-4.2,3.1-6.1,5.5V107.1z"/>
	<path class="st0" d="M317,124c-5.4,0-9.5-1.5-12.4-4.5c-2.9-3-4.3-7.2-4.3-12.5V72.5h-6.3c-0.8,0-1.5-0.3-2-0.8
		c-0.6-0.5-0.8-1.3-0.8-2.3v-5.9l9.9-1.6l3.1-16.8c0.2-0.8,0.6-1.4,1.1-1.9c0.6-0.4,1.3-0.7,2.2-0.7h7.7v19.4h16.5v10.6h-16.5v33.4
		c0,1.9,0.5,3.4,1.4,4.5s2.2,1.6,3.9,1.6c0.9,0,1.7-0.1,2.3-0.3c0.6-0.2,1.2-0.5,1.6-0.7c0.5-0.2,0.9-0.5,1.2-0.7
		c0.4-0.2,0.7-0.3,1.1-0.3c0.4,0,0.8,0.1,1.1,0.3c0.3,0.2,0.6,0.6,0.9,1l4.5,7.2c-2.2,1.8-4.7,3.2-7.5,4.1
		C323,123.6,320,124,317,124z"/>
	<path class="st0" d="M368,60.4c4.6,0,8.7,0.7,12.5,2.2c3.7,1.5,7,3.6,9.6,6.3c2.7,2.7,4.7,6.1,6.2,10c1.4,3.9,2.2,8.3,2.2,13.2
		c0,4.9-0.7,9.3-2.2,13.2c-1.4,3.9-3.5,7.3-6.2,10c-2.7,2.8-5.9,4.9-9.6,6.4c-3.8,1.5-7.9,2.2-12.5,2.2c-4.6,0-8.8-0.7-12.6-2.2
		c-3.8-1.5-7-3.6-9.7-6.4c-2.7-2.8-4.7-6.1-6.2-10c-1.5-3.9-2.2-8.3-2.2-13.2c0-4.9,0.7-9.2,2.2-13.2c1.5-3.9,3.5-7.3,6.2-10
		c2.7-2.7,5.9-4.8,9.7-6.3C359.2,61.1,363.4,60.4,368,60.4z M368,112.5c5.1,0,8.9-1.7,11.4-5.2c2.5-3.4,3.7-8.5,3.7-15.2
		c0-6.7-1.2-11.7-3.7-15.2c-2.5-3.5-6.3-5.2-11.4-5.2c-5.2,0-9.1,1.8-11.6,5.3c-2.5,3.5-3.8,8.6-3.8,15.2c0,6.6,1.3,11.7,3.8,15.1
		C359,110.8,362.8,112.5,368,112.5z"/>
</g>
<g>
	<path class="st0" d="M519.1,53.4c4.6,0,8.7,0.7,12.5,2.2c3.7,1.5,7,3.6,9.6,6.3c2.7,2.7,4.7,6.1,6.2,10c1.4,3.9,2.2,8.3,2.2,13.2
		c0,4.9-0.7,9.3-2.2,13.2c-1.4,3.9-3.5,7.3-6.2,10c-2.7,2.8-5.9,4.9-9.6,6.4c-3.8,1.5-7.9,2.2-12.5,2.2c-4.6,0-8.8-0.7-12.6-2.2
		c-3.8-1.5-7-3.6-9.7-6.4c-2.7-2.8-4.7-6.1-6.2-10c-1.5-3.9-2.2-8.3-2.2-13.2c0-4.9,0.7-9.2,2.2-13.2c1.5-3.9,3.5-7.3,6.2-10
		c2.7-2.7,5.9-4.8,9.7-6.3C510.3,54.2,514.5,53.4,519.1,53.4z M519.1,105.6c5.1,0,8.9-1.7,11.4-5.2c2.5-3.4,3.7-8.5,3.7-15.2
		c0-6.7-1.2-11.7-3.7-15.2c-2.5-3.5-6.3-5.2-11.4-5.2c-5.2,0-9.1,1.8-11.6,5.3c-2.5,3.5-3.8,8.6-3.8,15.2c0,6.6,1.3,11.7,3.8,15.1
		C510,103.9,513.9,105.6,519.1,105.6z"/>
	<path class="st0" d="M598.6,66.4c-0.4,0.6-0.8,1.1-1.3,1.4c-0.4,0.3-1,0.4-1.7,0.4c-0.7,0-1.5-0.2-2.3-0.6
		c-0.8-0.4-1.8-0.9-2.9-1.4c-1.1-0.5-2.3-1-3.7-1.4c-1.4-0.4-3-0.6-4.9-0.6c-2.9,0-5.2,0.6-6.9,1.9c-1.7,1.2-2.5,2.9-2.5,4.9
		c0,1.3,0.4,2.4,1.3,3.3c0.9,0.9,2,1.7,3.4,2.4c1.4,0.7,3,1.3,4.8,1.8s3.6,1.1,5.5,1.8c1.9,0.6,3.7,1.4,5.5,2.2
		c1.8,0.8,3.4,1.9,4.8,3.1c1.4,1.3,2.6,2.8,3.4,4.5c0.9,1.8,1.3,3.9,1.3,6.4c0,3-0.5,5.7-1.6,8.2c-1.1,2.5-2.6,4.7-4.7,6.5
		c-2.1,1.8-4.7,3.2-7.7,4.3c-3.1,1-6.6,1.5-10.6,1.5c-2.1,0-4.2-0.2-6.2-0.6c-2-0.4-4-0.9-5.8-1.6c-1.9-0.7-3.6-1.5-5.2-2.4
		c-1.6-0.9-3-1.9-4.2-3l3.4-5.7c0.4-0.7,1-1.2,1.6-1.6c0.6-0.4,1.4-0.5,2.3-0.5s1.8,0.3,2.6,0.8c0.8,0.5,1.8,1.1,2.9,1.7
		c1.1,0.6,2.4,1.2,3.8,1.7s3.3,0.8,5.6,0.8c1.8,0,3.3-0.2,4.5-0.6c1.3-0.4,2.3-1,3.1-1.7c0.8-0.7,1.4-1.5,1.8-2.4
		c0.4-0.9,0.6-1.8,0.6-2.8c0-1.4-0.4-2.6-1.3-3.5c-0.9-0.9-2-1.7-3.4-2.4c-1.4-0.7-3-1.3-4.9-1.8c-1.8-0.5-3.7-1.1-5.6-1.8
		c-1.9-0.6-3.8-1.4-5.6-2.3c-1.8-0.9-3.4-2-4.9-3.3s-2.6-2.9-3.4-4.9c-0.9-1.9-1.3-4.3-1.3-7c0-2.5,0.5-4.9,1.5-7.2
		c1-2.3,2.5-4.3,4.4-6c1.9-1.7,4.4-3.1,7.3-4.1c2.9-1,6.3-1.5,10.1-1.5c4.3,0,8.1,0.7,11.6,2.1s6.4,3.2,8.7,5.5L598.6,66.4z"/>
	<path class="st0" d="M667,54.4v61.7h-9.1c-2,0-3.2-0.9-3.7-2.7l-1-4.9c-2.5,2.6-5.3,4.6-8.4,6.2c-3,1.6-6.6,2.4-10.8,2.4
		c-3.4,0-6.3-0.6-8.9-1.7s-4.8-2.8-6.5-4.8c-1.8-2.1-3.1-4.6-4-7.4c-0.9-2.9-1.4-6-1.4-9.5V54.4h14.9v39.2c0,3.8,0.9,6.7,2.6,8.8
		c1.7,2.1,4.4,3.1,7.8,3.1c2.6,0,5-0.6,7.2-1.7s4.4-2.7,6.4-4.7V54.4H667z"/>
</g>
<g>
	<g>
		<path class="st1" d="M450.5,65.1v31.6H419V65.1H450.5 M460.1,55.5h-50.6v50.6h50.6V55.5L460.1,55.5z"/>
	</g>
	<g>
		<path class="st2" d="M434.7,124.1c10,0,18.2,8.2,18.2,18.2c0,10-8.2,18.2-18.2,18.2c-10,0-18.2-8.2-18.2-18.2
			C416.6,132.3,424.7,124.1,434.7,124.1 M434.7,117c-14,0-25.3,11.3-25.3,25.3c0,14,11.3,25.3,25.3,25.3c14,0,25.3-11.3,25.3-25.3
			C460.1,128.3,448.7,117,434.7,117L434.7,117z"/>
	</g>
	<g>
		<rect x="461.2" y="55.5" class="st3" width="14.9" height="14.9"/>
	</g>
	<g>
	</g>
</g>
</svg>
